<?xml version="1.0" standalone="no"?><!-- Generator: Gravit.io --><svg xmlns="http://www.w3.org/2000/svg" width="720px" height="720px" xmlns:xlink="http://www.w3.org/1999/xlink" style="isolation:isolate" viewBox="0.491 0.97 93.606 16.373"><g><path d=" M 0.491 0.983 L 0.491 14.419 L 6.778 14.419 L 6.778 6.357 L 10.37 6.357 L 10.37 14.419 L 16.657 14.419 L 16.657 0.983 L 0.491 0.983" fill="rgb(0,103,197)"/><g><path d=" M 22.157 0.97 L 24.85 0.97 L 31.072 9.225 L 31.072 0.97 L 33.96 0.97 L 33.96 14.314 L 31.481 14.314 L 25.045 5.892 L 25.045 14.314 L 22.157 14.314 L 22.157 0.97 Z " fill="rgb(33,30,30)"/><path d=" M 42.532 8.446 C 42.364 7.164 41.603 6.292 40.396 6.292 C 39.198 6.292 38.418 7.146 38.186 8.446 L 42.532 8.446 Z  M 35.363 9.3 L 35.363 9.263 C 35.363 6.366 37.433 3.989 40.396 3.989 C 43.785 3.989 45.345 6.617 45.345 9.486 C 45.345 9.718 45.326 9.978 45.308 10.248 L 38.232 10.248 C 38.52 11.548 39.421 12.235 40.712 12.235 C 41.687 12.235 42.383 11.928 43.182 11.195 L 44.825 12.653 C 43.887 13.823 42.513 14.538 40.674 14.538 C 37.619 14.538 35.363 12.402 35.363 9.3" fill="rgb(33,30,30)"/><path d=" M 47.147 11.436 L 47.147 6.635 L 45.931 6.635 L 45.931 4.174 L 47.147 4.174 L 47.147 1.583 L 50.026 1.583 L 50.026 4.174 L 52.422 4.174 L 52.422 6.635 L 50.026 6.635 L 50.026 10.962 C 50.026 11.631 50.314 11.946 50.955 11.946 C 51.493 11.946 51.967 11.816 52.385 11.594 L 52.385 13.897 C 51.772 14.259 51.066 14.482 50.1 14.482 C 48.345 14.482 47.147 13.785 47.147 11.436 Z " fill="rgb(33,30,30)"/><path d=" M 75.369 9.264 L 75.369 9.227 C 75.369 7.546 74.226 6.422 72.88 6.422 C 71.533 6.422 70.419 7.546 70.419 9.227 L 70.419 9.264 C 70.419 10.945 71.533 12.068 72.88 12.068 C 74.226 12.068 75.369 10.963 75.369 9.264 Z  M 67.568 4.175 L 70.456 4.175 L 70.456 5.633 C 71.153 4.686 72.118 3.989 73.623 3.989 C 75.991 3.989 78.247 5.837 78.247 9.227 L 78.247 9.264 C 78.247 12.653 76.028 14.501 73.623 14.501 C 72.081 14.501 71.134 13.805 70.456 12.997 L 70.456 17.343 L 67.568 17.343 L 67.568 4.175" fill="rgb(33,30,30)"/><path d=" M 87.227 9.264 L 87.227 9.227 C 87.227 7.546 86.084 6.422 84.738 6.422 C 83.391 6.422 82.268 7.546 82.268 9.227 L 82.268 9.264 C 82.268 10.945 83.391 12.068 84.738 12.068 C 86.084 12.068 87.227 10.963 87.227 9.264 Z  M 79.426 4.175 L 82.314 4.175 L 82.314 5.633 C 83.011 4.686 83.976 3.989 85.481 3.989 C 87.849 3.989 90.105 5.837 90.105 9.227 L 90.105 9.264 C 90.105 12.653 87.886 14.501 85.481 14.501 C 83.939 14.501 82.992 13.805 82.314 12.997 L 82.314 17.343 L 79.426 17.343 L 79.426 4.175" fill="rgb(33,30,30)"/><path d=" M 61.708 8.771 L 59.943 4.472 L 58.179 8.771 L 61.708 8.771 Z  M 58.671 0.971 L 61.299 0.971 L 66.843 14.315 L 63.806 14.315 L 62.581 11.343 L 57.315 11.343 L 56.099 14.315 L 53.118 14.315 L 58.671 0.971 Z " fill="rgb(33,30,30)"/><path d=" M 94.098 6.44 L 93.754 6.44 L 93.754 4.545 L 93.745 4.545 L 93.076 6.44 L 92.862 6.44 L 92.194 4.545 L 92.184 4.545 L 92.184 6.44 L 91.841 6.44 L 91.841 4.174 L 92.37 4.174 L 92.974 5.892 L 93.577 4.174 L 94.097 4.174 L 94.098 6.44 Z  M 91.433 4.471 L 90.792 4.471 L 90.792 6.44 L 90.448 6.44 L 90.448 4.471 L 89.808 4.471 L 89.808 4.174 L 91.433 4.174 L 91.433 4.471" fill="rgb(33,30,30)"/></g></g></svg>